<svg width="36" height="36" viewBox="0 0 36 36" fill="none" xmlns="http://www.w3.org/2000/svg">
<rect width="36" height="36" rx="18" fill="black"/>
<path fill-rule="evenodd" clip-rule="evenodd" d="M18.0005 8.09042C23.8951 8.09042 28.6737 11.9203 28.6737 16.6446C28.6737 18.2948 28.0902 19.8356 27.0802 21.1423C27.0303 21.2167 26.965 21.2989 26.8826 21.3897L26.8764 21.3964C26.5314 21.8096 26.1429 22.1975 25.7157 22.5555C22.7641 25.286 17.906 28.537 17.2648 28.0354C16.7074 27.5994 18.1828 25.467 16.4806 25.1121C16.3618 25.0985 16.2434 25.0839 16.1259 25.0672L16.1237 25.0671V25.0669C11.1241 24.356 7.32733 20.8557 7.32733 16.6446C7.32718 11.9203 12.1058 8.09042 18.0005 8.09042V8.09042Z" fill="white"/>
<path fill-rule="evenodd" clip-rule="evenodd" d="M11.8082 19.3727H13.9608C14.267 19.3727 14.5174 19.122 14.5174 18.8155V18.769C14.5174 18.4626 14.267 18.2119 13.9608 18.2119H12.4112V14.6833C12.4112 14.3768 12.1608 14.1261 11.8546 14.1261H11.8082C11.502 14.1261 11.2515 14.3768 11.2515 14.6833V18.8154C11.2515 19.122 11.502 19.3727 11.8082 19.3727V19.3727ZM25.1469 16.7826V16.7361C25.1469 16.4297 24.8964 16.179 24.5902 16.179H23.0407V15.2968H24.5902C24.8964 15.2968 25.1469 15.0462 25.1469 14.7397V14.6932C25.1469 14.3867 24.8964 14.1361 24.5902 14.1361H22.4376C22.1314 14.1361 21.8809 14.3867 21.8809 14.6932V18.8254C21.8809 19.1318 22.1314 19.3826 22.4376 19.3826H24.5902C24.8964 19.3826 25.1469 19.1318 25.1469 18.8254V18.7789C25.1469 18.4724 24.8964 18.2218 24.5902 18.2218H23.0407V17.3396H24.5902C24.8964 17.3397 25.1469 17.089 25.1469 16.7826V16.7826ZM21.0072 19.2066L21.0073 19.2064C21.1103 19.1024 21.1682 18.962 21.1683 18.8156V14.6834C21.1683 14.3769 20.9178 14.1263 20.6115 14.1263H20.5651C20.2589 14.1263 20.0085 14.3769 20.0085 14.6834V17.109L17.9965 14.408C17.9004 14.2401 17.7194 14.1263 17.5132 14.1263H17.4667C17.1605 14.1263 16.91 14.3769 16.91 14.6834V18.8156C16.91 19.122 17.1604 19.3728 17.4667 19.3728H17.5132C17.8194 19.3728 18.0698 19.122 18.0698 18.8156V16.3446L20.0963 19.1149C20.1087 19.1343 20.1224 19.153 20.1371 19.1707L20.1372 19.1708C20.1928 19.2468 20.269 19.2989 20.3539 19.3308C20.4191 19.3578 20.4904 19.3727 20.565 19.3727H20.6115C20.7022 19.3728 20.7915 19.3504 20.8715 19.3077C20.9272 19.2811 20.9741 19.2469 21.0072 19.2066V19.2066ZM15.5233 19.3727H15.5698C15.876 19.3727 16.1264 19.122 16.1264 18.8155V14.6833C16.1264 14.3769 15.876 14.1262 15.5698 14.1262H15.5233C15.2171 14.1262 14.9666 14.3769 14.9666 14.6833V18.8155C14.9666 19.122 15.2171 19.3727 15.5233 19.3727Z" fill="black"/>
</svg>
